<svg width="222" height="82" viewBox="0 0 222 82" fill="none" xmlns="http://www.w3.org/2000/svg">
<path fill-rule="evenodd" clip-rule="evenodd" d="M26.191 38.738C25.692 38.702 25.466 38.574 25.39 38.033C25.05 35.665 24.701 33.296 24.262 30.943C24.125 30.212 24.32 29.815 24.857 29.365C31.123 24.157 36.599 15.219 34.932 7.366C33.799 2.013 30.112 1.227 28.252 0.997997C23.99 0.477997 20.418 2.093 17.846 5.579C14.164 10.572 15.022 17.241 16.468 23.278C16.861 24.934 16.852 24.934 15.462 25.837C11.539 28.382 7.55702 31.191 4.48502 34.69C-0.123983 39.942 -0.781985 45.87 1.62001 52.199C3.98601 58.424 8.87502 61.637 15.206 62.908C18.06 63.481 20.945 63.54 23.841 63.269C24.202 63.235 24.595 63.081 24.723 63.7C25.259 66.315 25.719 68.926 25.29 71.602C24.417 77.029 19.955 78.266 15.009 77.158C14.505 77.046 14.039 76.77 14.014 76.1C15.272 75.941 17.287 75.757 18.899 74.087C20.617 72.303 20.626 69.714 18.829 68.011C16.739 66.03 14.237 65.66 11.567 66.523C8.06302 67.66 7.59101 70.009 7.93401 73.179C8.34301 76.965 10.693 79.681 14.4 80.617C20.195 82.078 26.828 80.281 29.043 74.385C30.655 70.093 29.93 66.855 29.522 63.397C29.384 62.235 29.335 62.258 30.364 61.811C34.808 59.873 37.468 56.582 37.728 51.66C38.073 45.038 32.798 39.191 26.191 38.738ZM14.277 57.541C6.10702 54.499 6.09002 45.347 9.58702 41.099C12.228 37.891 15.066 36.27 19.208 33.377C19.585 35.465 19.928 37.381 20.29 39.389C17.095 39.948 14.682 41.518 13.418 44.545C12.575 46.575 12.505 48.648 13.234 50.725C14.272 53.689 17.802 56.199 20.27 55.561C18.825 54.229 16.776 53.088 16.599 50.304C16.466 48.13 17.972 45.323 21.349 44.745C22.181 49.308 23.003 53.799 23.838 58.39C20.466 58.785 17.327 58.678 14.277 57.541ZM23.52 21.037C23.158 21.351 22.729 21.588 22.163 21.975C21.76 19.456 20.775 15.127 22.161 11.593C23.047 9.346 25.067 8.35 27.286 8.772C28.425 8.991 29.069 9.765 29.046 10.917C28.971 14.585 26.362 18.587 23.52 21.037ZM28.495 56.964C27.842 52.804 27.187 48.654 26.534 44.507C29.002 44.019 31.685 46.26 32.423 49.366C33.174 52.531 31.344 56.148 28.495 56.964Z" fill="white"/>
<path d="M44.2142 57.2326V59.8406H45.5743V62.461H44.2142V71.3206C44.2142 72.4104 44.2683 73.0177 44.3764 73.1425C44.4929 73.2673 44.9629 73.3296 45.7865 73.3296V76H43.7525C42.6045 76 41.7851 75.9542 41.2943 75.8627C40.8035 75.7629 40.3709 75.5425 39.9965 75.2014C39.6222 74.852 39.3893 74.4569 39.2977 74.016C39.2062 73.5667 39.1605 72.5186 39.1605 70.8714V62.461H38.0749V59.8406H39.1605V57.2326H44.2142ZM58.1025 68.0139H51.5764V71.5952C51.5764 72.3439 51.6305 72.8264 51.7386 73.0426C51.8468 73.2589 52.0547 73.3671 52.3625 73.3671C52.7452 73.3671 52.9989 73.2257 53.1237 72.9428C53.2568 72.6517 53.3234 72.0943 53.3234 71.2707V69.087H58.1025V70.3099C58.1025 71.3331 58.036 72.1192 57.9029 72.6683C57.7781 73.2173 57.4786 73.8038 57.0044 74.4277C56.5303 75.0516 55.9272 75.5217 55.1951 75.8378C54.4714 76.1456 53.5604 76.2995 52.4623 76.2995C51.3975 76.2995 50.4575 76.1456 49.6423 75.8378C48.827 75.53 48.1906 75.1099 47.7331 74.5775C47.2839 74.0367 46.9719 73.4461 46.7972 72.8056C46.6225 72.1567 46.5352 71.2167 46.5352 69.9855V65.1564C46.5352 63.7089 46.7306 62.5692 47.1216 61.7373C47.5126 60.8971 48.1532 60.2565 49.0433 59.8156C49.9334 59.3664 50.9566 59.1418 52.113 59.1418C53.5272 59.1418 54.6918 59.4122 55.6069 59.9529C56.5303 60.4853 57.175 61.1966 57.541 62.0867C57.9154 62.9685 58.1025 64.2122 58.1025 65.8177V68.0139ZM53.0488 65.3186V64.1082C53.0488 63.2513 53.0031 62.6981 52.9116 62.4486C52.8201 62.199 52.6329 62.0742 52.35 62.0742C52.0007 62.0742 51.7844 62.1824 51.7012 62.3987C51.618 62.6066 51.5764 63.1765 51.5764 64.1082V65.3186H53.0488ZM64.9531 55.7976V58.4306H59.7622V55.7976H64.9531ZM64.9531 59.4413V76H59.7622V59.4413H64.9531ZM71.9035 59.4413L71.8162 60.9637C72.1822 60.3564 72.6273 59.903 73.1514 59.6035C73.6838 59.2957 74.2952 59.1418 74.9857 59.1418C75.8508 59.1418 76.5579 59.3456 77.107 59.7533C77.656 60.1609 78.0096 60.6766 78.1676 61.3006C78.3257 61.9162 78.4047 62.9477 78.4047 64.3952V76H73.3635V64.5324C73.3635 63.3928 73.3261 62.6981 73.2512 62.4486C73.1763 62.199 72.9684 62.0742 72.6273 62.0742C72.2696 62.0742 72.045 62.2198 71.9534 62.511C71.8619 62.7938 71.8162 63.5591 71.8162 64.807V76H66.775V59.4413H71.9035ZM96.4359 59.4413L94.4269 76H88.9489C88.6494 73.9785 88.3042 71.3165 87.9132 68.0139C87.7801 69.4614 87.5929 70.9255 87.3517 72.4063L86.7901 76H81.3122L79.1784 59.4413H83.5208C83.5541 59.8739 83.9201 63.0309 84.6189 68.9123C84.6688 68.3134 85.0432 65.1564 85.742 59.4413H89.9222L90.9454 68.9123C91.1035 66.1505 91.4861 62.9935 92.0934 59.4413H96.4359ZM101.777 65.8551H97.0473V64.7446C97.0473 63.4635 97.1929 62.4777 97.4841 61.7872C97.7835 61.0884 98.3783 60.4728 99.2684 59.9404C100.159 59.408 101.315 59.1418 102.737 59.1418C104.443 59.1418 105.728 59.4455 106.593 60.0527C107.458 60.6517 107.978 61.3921 108.153 62.2739C108.328 63.1474 108.415 64.9525 108.415 67.6895V76H103.511V74.5276C103.203 75.1182 102.804 75.5633 102.313 75.8627C101.831 76.1539 101.252 76.2995 100.579 76.2995C99.6969 76.2995 98.8858 76.0541 98.1454 75.5633C97.4133 75.0641 97.0473 73.9785 97.0473 72.3064V70.9463C97.0473 69.7068 97.2428 68.8624 97.6338 68.4132C98.0248 67.964 98.9939 67.4399 100.541 66.8409C102.197 66.1921 103.083 65.7553 103.199 65.5307C103.316 65.3061 103.374 64.8486 103.374 64.1581C103.374 63.2929 103.307 62.7314 103.174 62.4735C103.049 62.2073 102.837 62.0742 102.538 62.0742C102.197 62.0742 101.985 62.1865 101.901 62.4111C101.818 62.6274 101.777 63.1973 101.777 64.1207V65.8551ZM103.374 68.1262C102.567 68.7168 102.097 69.2118 101.964 69.6111C101.839 70.0104 101.777 70.5844 101.777 71.3331C101.777 72.19 101.831 72.7432 101.939 72.9927C102.055 73.2423 102.28 73.3671 102.613 73.3671C102.929 73.3671 103.133 73.2714 103.224 73.0801C103.324 72.8804 103.374 72.3647 103.374 71.5328V68.1262ZM120.706 59.4413L119.259 71.4205C119.034 73.3172 118.843 74.6107 118.685 75.3012C118.535 75.9917 118.281 76.5615 117.924 77.0107C117.566 77.46 117.067 77.7886 116.426 77.9965C115.794 78.2128 114.779 78.321 113.381 78.321H110.324V75.6756C111.106 75.6756 111.609 75.6381 111.834 75.5633C112.059 75.4801 112.171 75.3012 112.171 75.0267C112.171 74.8936 112.067 74.3154 111.859 73.2922L109.101 59.4413H113.681L115.328 70.6094L116.127 59.4413H120.706ZM135.343 55.7976L138.35 76H132.972L132.71 72.3688H130.826L130.514 76H125.074L127.744 55.7976H135.343ZM132.561 68.7875C132.294 66.4999 132.028 63.6756 131.762 60.3148C131.23 64.1747 130.897 66.999 130.764 68.7875H132.561ZM150.242 65.6929H145.488V63.7837C145.488 63.1182 145.434 62.669 145.326 62.4361C145.218 62.1948 145.018 62.0742 144.727 62.0742C144.436 62.0742 144.24 62.1782 144.14 62.3862C144.041 62.5941 143.991 63.06 143.991 63.7837V71.5952C143.991 72.1858 144.066 72.6309 144.215 72.9303C144.365 73.2215 144.585 73.3671 144.877 73.3671C145.218 73.3671 145.446 73.2132 145.563 72.9054C145.688 72.5976 145.75 72.0153 145.75 71.1584V69.1868H150.242C150.234 70.5095 150.184 71.5037 150.093 72.1692C150.009 72.8264 149.731 73.5043 149.257 74.2031C148.791 74.8936 148.179 75.4177 147.422 75.7754C146.665 76.1248 145.729 76.2995 144.615 76.2995C143.192 76.2995 142.065 76.0582 141.233 75.5757C140.401 75.0849 139.81 74.4028 139.461 73.5293C139.12 72.6475 138.949 71.3997 138.949 69.7858V65.0815C138.949 63.6756 139.091 62.6149 139.374 61.8995C139.657 61.1841 140.26 60.5477 141.183 59.9903C142.106 59.4247 143.229 59.1418 144.552 59.1418C145.867 59.1418 146.99 59.4205 147.921 59.9779C148.853 60.5352 149.473 61.2382 149.781 62.0867C150.088 62.9352 150.242 64.1373 150.242 65.6929ZM156.257 65.8551H151.528V64.7446C151.528 63.4635 151.673 62.4777 151.964 61.7872C152.264 61.0884 152.859 60.4728 153.749 59.9404C154.639 59.408 155.795 59.1418 157.218 59.1418C158.923 59.1418 160.208 59.4455 161.073 60.0527C161.939 60.6517 162.459 61.3921 162.633 62.2739C162.808 63.1474 162.895 64.9525 162.895 67.6895V76H157.991V74.5276C157.684 75.1182 157.284 75.5633 156.793 75.8627C156.311 76.1539 155.733 76.2995 155.059 76.2995C154.177 76.2995 153.366 76.0541 152.626 75.5633C151.894 75.0641 151.528 73.9785 151.528 72.3064V70.9463C151.528 69.7068 151.723 68.8624 152.114 68.4132C152.505 67.964 153.474 67.4399 155.021 66.8409C156.677 66.1921 157.563 65.7553 157.679 65.5307C157.796 65.3061 157.854 64.8486 157.854 64.1581C157.854 63.2929 157.788 62.7314 157.654 62.4735C157.53 62.2073 157.317 62.0742 157.018 62.0742C156.677 62.0742 156.465 62.1865 156.382 62.4111C156.298 62.6274 156.257 63.1973 156.257 64.1207V65.8551ZM157.854 68.1262C157.047 68.7168 156.577 69.2118 156.444 69.6111C156.319 70.0104 156.257 70.5844 156.257 71.3331C156.257 72.19 156.311 72.7432 156.419 72.9927C156.536 73.2423 156.76 73.3671 157.093 73.3671C157.409 73.3671 157.613 73.2714 157.704 73.0801C157.804 72.8804 157.854 72.3647 157.854 71.5328V68.1262ZM176.097 55.7976V76H171.056V74.8021C170.574 75.3012 170.066 75.6756 169.534 75.9251C169.001 76.1747 168.444 76.2995 167.862 76.2995C167.08 76.2995 166.402 76.0957 165.828 75.688C165.254 75.2721 164.884 74.7938 164.717 74.253C164.559 73.7123 164.48 72.8305 164.48 71.6076V63.8586C164.48 62.5858 164.559 61.6832 164.717 61.1508C164.884 60.6184 165.258 60.1526 165.84 59.7533C166.422 59.3456 167.117 59.1418 167.924 59.1418C168.548 59.1418 169.118 59.2541 169.634 59.4787C170.158 59.7033 170.632 60.0403 171.056 60.4895V55.7976H176.097ZM171.056 63.609C171.056 63.0018 171.002 62.5941 170.894 62.3862C170.794 62.1782 170.59 62.0742 170.282 62.0742C169.983 62.0742 169.779 62.1699 169.671 62.3612C169.571 62.5442 169.521 62.9602 169.521 63.609V71.7199C169.521 72.3938 169.571 72.8388 169.671 73.0551C169.771 73.2631 169.962 73.3671 170.245 73.3671C170.569 73.3671 170.786 73.2506 170.894 73.0177C171.002 72.7764 171.056 72.1941 171.056 71.2707V63.609ZM189.324 68.0139H182.798V71.5952C182.798 72.3439 182.852 72.8264 182.96 73.0426C183.069 73.2589 183.277 73.3671 183.584 73.3671C183.967 73.3671 184.221 73.2257 184.345 72.9428C184.479 72.6517 184.545 72.0943 184.545 71.2707V69.087H189.324V70.3099C189.324 71.3331 189.258 72.1192 189.125 72.6683C189 73.2173 188.7 73.8038 188.226 74.4277C187.752 75.0516 187.149 75.5217 186.417 75.8378C185.693 76.1456 184.782 76.2995 183.684 76.2995C182.619 76.2995 181.679 76.1456 180.864 75.8378C180.049 75.53 179.412 75.1099 178.955 74.5775C178.506 74.0367 178.194 73.4461 178.019 72.8056C177.844 72.1567 177.757 71.2167 177.757 69.9855V65.1564C177.757 63.7089 177.952 62.5692 178.343 61.7373C178.734 60.8971 179.375 60.2565 180.265 59.8156C181.155 59.3664 182.178 59.1418 183.335 59.1418C184.749 59.1418 185.914 59.4122 186.829 59.9529C187.752 60.4853 188.397 61.1966 188.763 62.0867C189.137 62.9685 189.324 64.2122 189.324 65.8177V68.0139ZM184.271 65.3186V64.1082C184.271 63.2513 184.225 62.6981 184.133 62.4486C184.042 62.199 183.855 62.0742 183.572 62.0742C183.222 62.0742 183.006 62.1824 182.923 62.3987C182.84 62.6066 182.798 63.1765 182.798 64.1082V65.3186H184.271ZM195.963 59.4413L195.875 61.0136C196.266 60.3896 196.732 59.9238 197.273 59.616C197.814 59.2999 198.429 59.1418 199.12 59.1418C200.467 59.1418 201.528 59.7657 202.302 61.0136C202.726 60.3896 203.204 59.9238 203.737 59.616C204.269 59.2999 204.86 59.1418 205.509 59.1418C206.366 59.1418 207.073 59.3498 207.63 59.7657C208.196 60.1817 208.558 60.6933 208.716 61.3006C208.874 61.8995 208.953 62.877 208.953 64.233V76H204.061V65.2063C204.061 63.7921 204.011 62.9186 203.911 62.5858C203.82 62.2448 203.6 62.0742 203.25 62.0742C202.892 62.0742 202.659 62.2406 202.551 62.5734C202.452 62.9061 202.402 63.7837 202.402 65.2063V76H197.51V65.4808C197.51 63.8586 197.469 62.8853 197.385 62.5609C197.31 62.2364 197.094 62.0742 196.736 62.0742C196.512 62.0742 196.321 62.1616 196.162 62.3363C196.004 62.5026 195.917 62.7106 195.9 62.9602C195.884 63.2014 195.875 63.7214 195.875 64.52V76H190.984V59.4413H195.963ZM221.256 59.4413L219.809 71.4205C219.584 73.3172 219.393 74.6107 219.235 75.3012C219.085 75.9917 218.831 76.5615 218.474 77.0107C218.116 77.46 217.617 77.7886 216.976 77.9965C216.344 78.2128 215.329 78.321 213.932 78.321H210.874V75.6756C211.656 75.6756 212.16 75.6381 212.384 75.5633C212.609 75.4801 212.721 75.3012 212.721 75.0267C212.721 74.8936 212.617 74.3154 212.409 73.2922L209.651 59.4413H214.231L215.878 70.6094L216.677 59.4413H221.256Z" fill="white"/>
</svg>
